<svg width="69" height="59" viewBox="0 0 69 59" fill="none" xmlns="http://www.w3.org/2000/svg">
<g clip-path="url(#clip0_1_4)">
<path d="M0.14 58V31.72H3.38V55.048H15.26V58H0.14ZM17.7659 58V55.048H23.1299V34.672H17.7659V31.72H31.8059V34.672H26.4419V55.048H31.8059V58H17.7659ZM35.5719 58V31.72H50.6919V34.672H38.7759V42.808H49.4319V45.724H38.7759V55.048H50.6919V58H35.5719ZM60.9018 58.36C59.1738 58.36 57.6858 58.072 56.4378 57.496C55.2138 56.92 54.2658 56.092 53.5938 55.012C52.9218 53.932 52.5738 52.648 52.5498 51.16H55.7898C55.7898 52.48 56.2338 53.524 57.1218 54.292C58.0338 55.06 59.2938 55.444 60.9018 55.444C62.4138 55.444 63.5898 55.072 64.4298 54.328C65.2938 53.584 65.7258 52.552 65.7258 51.232C65.7258 50.176 65.4378 49.252 64.8618 48.46C64.3098 47.668 63.5058 47.116 62.4498 46.804L58.8858 45.688C57.0858 45.136 55.6938 44.212 54.7098 42.916C53.7498 41.62 53.2698 40.096 53.2698 38.344C53.2698 36.928 53.5818 35.704 54.2058 34.672C54.8538 33.616 55.7538 32.8 56.9058 32.224C58.0578 31.624 59.4138 31.324 60.9738 31.324C63.2778 31.324 65.1258 31.972 66.5178 33.268C67.9098 34.54 68.6178 36.244 68.6418 38.38H65.4018C65.4018 37.084 65.0058 36.076 64.2138 35.356C63.4458 34.612 62.3538 34.24 60.9378 34.24C59.5458 34.24 58.4538 34.576 57.6618 35.248C56.8938 35.92 56.5098 36.856 56.5098 38.056C56.5098 39.136 56.7978 40.072 57.3738 40.864C57.9498 41.656 58.7778 42.22 59.8578 42.556L63.4578 43.708C65.2098 44.26 66.5658 45.196 67.5258 46.516C68.4858 47.836 68.9658 49.384 68.9658 51.16C68.9658 52.6 68.6298 53.86 67.9578 54.94C67.2858 56.02 66.3378 56.86 65.1138 57.46C63.9138 58.06 62.5098 58.36 60.9018 58.36Z" fill="black"/>
<path d="M0.14 27V0.719999H3.38V24.048H15.26V27H0.14ZM24.7859 27.36C23.2019 27.36 21.8339 27.06 20.6819 26.46C19.5539 25.86 18.6779 24.996 18.0539 23.868C17.4539 22.716 17.1539 21.36 17.1539 19.8V7.92C17.1539 6.336 17.4539 4.98 18.0539 3.852C18.6779 2.724 19.5539 1.86 20.6819 1.26C21.8339 0.659999 23.2019 0.36 24.7859 0.36C26.3699 0.36 27.7259 0.659999 28.8539 1.26C30.0059 1.86 30.8819 2.724 31.4819 3.852C32.1059 4.98 32.4179 6.324 32.4179 7.884V19.8C32.4179 21.36 32.1059 22.716 31.4819 23.868C30.8819 24.996 30.0059 25.86 28.8539 26.46C27.7259 27.06 26.3699 27.36 24.7859 27.36ZM24.7859 24.444C26.2019 24.444 27.2819 24.048 28.0259 23.256C28.7939 22.44 29.1779 21.288 29.1779 19.8V7.92C29.1779 6.432 28.7939 5.292 28.0259 4.5C27.2819 3.684 26.2019 3.276 24.7859 3.276C23.3939 3.276 22.3139 3.684 21.5459 4.5C20.7779 5.292 20.3939 6.432 20.3939 7.92V19.8C20.3939 21.288 20.7779 22.44 21.5459 23.256C22.3139 24.048 23.3939 24.444 24.7859 24.444ZM40.5399 27L33.7719 0.719999H37.1199L41.5839 18.576C41.8959 19.824 42.1599 20.988 42.3759 22.068C42.5919 23.124 42.7479 23.928 42.8439 24.48C42.9399 23.928 43.0839 23.124 43.2759 22.068C43.4919 20.988 43.7559 19.824 44.0679 18.576L48.4959 0.719999H51.7719L44.9679 27H40.5399ZM53.5578 27V0.719999H68.6778V3.672H56.7618V11.808H67.4178V14.724H56.7618V24.048H68.6778V27H53.5578Z" fill="black"/>
</g>
<defs>
<clipPath id="clip0_1_4">
<rect width="69" height="59" fill="white"/>
</clipPath>
</defs>
</svg>
