<svg width="76" height="73" viewBox="0 0 76 73" fill="none" xmlns="http://www.w3.org/2000/svg">
<g clip-path="url(#clip0_1_4)">
<path d="M4.14 65V38.72H7.38V62.048H19.26V65H4.14ZM21.7659 65V62.048H27.1299V41.672H21.7659V38.72H35.8059V41.672H30.4419V62.048H35.8059V65H21.7659ZM39.5719 65V38.72H54.6919V41.672H42.7759V49.808H53.4319V52.724H42.7759V62.048H54.6919V65H39.5719ZM64.9018 65.36C63.1738 65.36 61.6858 65.072 60.4378 64.496C59.2138 63.92 58.2658 63.092 57.5938 62.012C56.9218 60.932 56.5738 59.648 56.5498 58.16H59.7898C59.7898 59.48 60.2338 60.524 61.1218 61.292C62.0338 62.06 63.2938 62.444 64.9018 62.444C66.4138 62.444 67.5898 62.072 68.4298 61.328C69.2938 60.584 69.7258 59.552 69.7258 58.232C69.7258 57.176 69.4378 56.252 68.8618 55.46C68.3098 54.668 67.5058 54.116 66.4498 53.804L62.8858 52.688C61.0858 52.136 59.6938 51.212 58.7098 49.916C57.7498 48.62 57.2698 47.096 57.2698 45.344C57.2698 43.928 57.5818 42.704 58.2058 41.672C58.8538 40.616 59.7538 39.8 60.9058 39.224C62.0578 38.624 63.4138 38.324 64.9738 38.324C67.2778 38.324 69.1258 38.972 70.5178 40.268C71.9098 41.54 72.6178 43.244 72.6418 45.38H69.4018C69.4018 44.084 69.0058 43.076 68.2138 42.356C67.4458 41.612 66.3538 41.24 64.9378 41.24C63.5458 41.24 62.4538 41.576 61.6618 42.248C60.8938 42.92 60.5098 43.856 60.5098 45.056C60.5098 46.136 60.7978 47.072 61.3738 47.864C61.9498 48.656 62.7778 49.22 63.8578 49.556L67.4578 50.708C69.2098 51.26 70.5658 52.196 71.5258 53.516C72.4858 54.836 72.9658 56.384 72.9658 58.16C72.9658 59.6 72.6298 60.86 71.9578 61.94C71.2858 63.02 70.3378 63.86 69.1138 64.46C67.9138 65.06 66.5098 65.36 64.9018 65.36Z" fill="black"/>
<path d="M4.14 34V7.72H7.38V31.048H19.26V34H4.14ZM28.7859 34.36C27.2019 34.36 25.8339 34.06 24.6819 33.46C23.5539 32.86 22.6779 31.996 22.0539 30.868C21.4539 29.716 21.1539 28.36 21.1539 26.8V14.92C21.1539 13.336 21.4539 11.98 22.0539 10.852C22.6779 9.724 23.5539 8.86 24.6819 8.26C25.8339 7.66 27.2019 7.36 28.7859 7.36C30.3699 7.36 31.7259 7.66 32.8539 8.26C34.0059 8.86 34.8819 9.724 35.4819 10.852C36.1059 11.98 36.4179 13.324 36.4179 14.884V26.8C36.4179 28.36 36.1059 29.716 35.4819 30.868C34.8819 31.996 34.0059 32.86 32.8539 33.46C31.7259 34.06 30.3699 34.36 28.7859 34.36ZM28.7859 31.444C30.2019 31.444 31.2819 31.048 32.0259 30.256C32.7939 29.44 33.1779 28.288 33.1779 26.8V14.92C33.1779 13.432 32.7939 12.292 32.0259 11.5C31.2819 10.684 30.2019 10.276 28.7859 10.276C27.3939 10.276 26.3139 10.684 25.5459 11.5C24.7779 12.292 24.3939 13.432 24.3939 14.92V26.8C24.3939 28.288 24.7779 29.44 25.5459 30.256C26.3139 31.048 27.3939 31.444 28.7859 31.444ZM44.5399 34L37.7719 7.72H41.1199L45.5839 25.576C45.8959 26.824 46.1599 27.988 46.3759 29.068C46.5919 30.124 46.7479 30.928 46.8439 31.48C46.9399 30.928 47.0839 30.124 47.2759 29.068C47.4919 27.988 47.7559 26.824 48.0679 25.576L52.4959 7.72H55.7719L48.9679 34H44.5399ZM57.5578 34V7.72H72.6778V10.672H60.7618V18.808H71.4178V21.724H60.7618V31.048H72.6778V34H57.5578Z" fill="black"/>
</g>
<defs>
<clipPath id="clip0_1_4">
<rect width="76" height="73" fill="white"/>
</clipPath>
</defs>
</svg>
